<?xml version="1.0" standalone="no"?>
<!DOCTYPE svg PUBLIC "-//W3C//DTD SVG 20010904//EN"
 "http://www.w3.org/TR/2001/REC-SVG-20010904/DTD/svg10.dtd">
<svg version="1.0" xmlns="http://www.w3.org/2000/svg"
 width="9000.000000pt" height="9000.000000pt" viewBox="0 0 9000.000000 9000.000000"
 preserveAspectRatio="xMidYMid meet">
<metadata>
Created by potrace 1.11, written by Peter Selinger 2001-2013
</metadata>
<g transform="translate(0.000000,9000.000000) scale(0.100000,-0.100000)"
fill="#000000" stroke="none">
<path d="M7060 81400 l0 -8600 -3530 0 -3530 0 0 -540 0 -540 11065 0 11065 0
0 -8550 0 -8550 -11065 0 -11065 0 0 -535 0 -535 3745 0 3745 0 0 -8550 0
-8550 -3745 0 -3745 0 0 -535 0 -535 11065 0 11065 0 0 -8550 0 -8550 -11065
0 -11065 0 0 -540 0 -540 3745 0 3745 0 0 -8600 0 -8600 540 0 540 0 0 8600 0
8600 14535 0 14535 0 0 -8600 0 -8600 540 0 540 0 0 8600 0 8600 14530 0
14530 0 0 -8600 0 -8600 540 0 540 0 0 8600 0 8600 10570 0 10570 0 0 540 0
540 -3250 0 -3250 0 0 8550 0 8550 3250 0 3250 0 0 535 0 535 -10570 0 -10570
0 0 8550 0 8550 10570 0 10570 0 0 535 0 535 -3250 0 -3250 0 0 8550 0 8550
3250 0 3250 0 0 540 0 540 -3272 1 c-1800 0 -6654 0 -10785 -1 l-7513 -1 0
8600 0 8601 -540 0 -540 0 0 -8600 0 -8600 -14535 0 -14535 0 0 8600 0 8600
-540 0 -540 0 0 -8600 0 -8600 -14530 0 -14530 0 0 8600 0 8600 -540 0 -540 0
0 -8600z m45220 -18230 l0 -8550 -14535 0 -14535 0 0 8550 0 8550 14535 0
14535 0 0 -8550z m30140 0 l0 -8550 -14530 0 -14530 0 0 8550 0 8550 14530 0
14530 0 0 -8550z m-44780 -18170 l0 -8550 -14535 0 -14535 0 0 8550 0 8550
14535 0 14535 0 0 -8550z m30140 0 l0 -8550 -14530 0 -14530 0 0 8550 0 8550
14530 0 14530 0 0 -8550z m-15500 -18170 l0 -8550 -14535 0 -14535 0 0 8550 0
8550 14535 0 14535 0 0 -8550z m30140 0 l0 -8550 -14530 0 -14530 0 0 8550 0
8550 14530 0 14530 0 0 -8550z"/>
</g>
</svg>
